<?xml version="1.0" encoding="utf-8"?>
<!-- Generator: Adobe Illustrator 21.1.0, SVG Export Plug-In . SVG Version: 6.00 Build 0)  -->
<svg version="1.1" id="Layer_1" xmlns="http://www.w3.org/2000/svg" xmlns:xlink="http://www.w3.org/1999/xlink" x="0px" y="0px"
	 viewBox="0 0 592.2 188.9" style="enable-background:new 0 0 592.2 188.9;" xml:space="preserve">
<style type="text/css">
	.st0{fill:#FFFFFF;}
	.st1{fill:#D5045F;}
</style>
<g id="First">
	<polyline class="st0" points="0,171.8 38.4,171.8 38.4,119.3 80,119.3 80,84.7 38.4,84.7 38.4,57.9 91.9,57.9 91.9,23.6 0,23.6 
		0,171.8 	"/>
	<rect x="91.9" y="66.2" class="st0" width="31.9" height="105.7"/>
	<path class="st0" d="M281.1,95.6c-0.8-27-23.6-33.1-41.6-33.1c-16.8,0-40.8,8-40.8,34.7c0,18.1,11.2,28.7,35.5,34
		c14.9,3.2,16.5,6.3,16.5,12.4s-5.5,7.8-9.7,8.2c-4.8,0.5-8.4-2.1-10-3.9c-2.4-2.6-2.9-5.4-3.1-9.1h-31.7
		c0.5,27.3,24,35.8,43.7,35.8c20.3,0,44.5-7.9,44.5-37.3c0-17.3-11.3-25.3-22-29.5c-10.6-4.5-22-6-27.3-8.9c-1.8-1-4.5-2.8-4.5-5.8
		c0-6.9,5.8-7.6,10.3-7.6c2.6,0,5.2,1.2,7.1,3.2c2.1,1.8,2.4,6.5,2.4,6.9L281.1,95.6"/>
	<path class="st0" d="M331.2,32.5h-33.4v32.2h-12.7v24.8h12.7v51.9c0,28.9,16.5,31.6,30,31.6c6.8,0,14-1.2,20.5-1.2v-30.5
		c-2.4,0.4-4.9,0.6-7.2,0.6c-8.1,0-9.9-4.2-9.9-14V89.7h17.1V64.8h-17.1V32.5"/>
	<path class="st0" d="M134.1,171.8h33.4v-36c0-22.6,7.1-32,18.2-32c6.5,0,6.2,0,9.4,1.5V62.9c-0.2-0.2-5.8-1.2-10.5-0.2
		c-11.2,2.6-14.8,11.6-19.9,24.3l-0.3-4.3V65.8l-30.2,0.4L134.1,171.8"/>
</g>
<path id="Roundel" class="st1" d="M375.6,94.4C375.6,42.3,424.1,0,483.9,0c21.9,0,42.3,5.7,59.3,15.4c-14.5,1.7-24.6,5.3-38.6,13.6
	c-13.4,7.8-20.4,13.9-30.3,26.7h-40.9l-14.2,15.9h42.9l-62.8,81.7C384.5,137.1,375.6,116.6,375.6,94.4 M555.1,23.2
	c11.7,8.9,20.5,19.3,27,31.7h-66.5c2.6-6.8,8.2-12.5,10.3-15.1C532,32.1,542.5,25.4,555.1,23.2z M589,71.4c2.1,7.3,3.2,15,3.2,23
	c0,52.1-48.4,94.4-108.3,94.4c-9.2,0-18.1-1-26.6-2.8l51.8-114.5L589,71.4L589,71.4z"/>
</svg>
